<?xml version='1.0' encoding='UTF-8' standalone='no'?>
<svg width="40" version="1.2" xmlns="http://www.w3.org/2000/svg" height="40" xmlns:xlink="http://www.w3.org/1999/xlink" xmlns:svg="http://www.w3.org/2000/svg" xmlns:atv="http://webmi.atvise.com/2007/svgext">
 <defs>
  <radialGradient fx="0.500001" fy="0.1" cx="0.5" cy="0.1" id="radialGradient14963" r="0.5" gradientUnits="objectBoundingBox" >
   <stop offset="0" stop-color="#ffffff" />
   <stop offset="1" stop-color="#000000" />
  </radialGradient>
  <radialGradient fx="0.5" fy="0.5" cx="0.5" cy="0.5" id="radialGradient14960" r="0.8" gradientUnits="objectBoundingBox" >
   <stop offset="0" stop-color="#ffffff" stop-opacity="0.31944445" />
   <stop offset="1" stop-color="#ffffff" />
  </radialGradient>
  <radialGradient fx="0.5" fy="1" cx="0.5" cy="1" id="radialGradient14956" r="0.8" gradientUnits="objectBoundingBox" >
   <stop offset="0" stop-color="#ffffff" stop-opacity="0.31944445" />
   <stop offset="1" stop-color="#ffffff" />
  </radialGradient>
  <linearGradient id="linearGradient14952" y1="0.8" x1="0.5" y2="-0.2" gradientUnits="objectBoundingBox" x2="0.5" >
   <stop offset="0" stop-color="#ffffff" stop-opacity="0" />
   <stop offset="1" stop-color="#ffffff" />
  </linearGradient>
  <linearGradient id="linear_0" y1="0" x1="0" y2="1" gradientUnits="objectBoundingBox" x2="1" >
   <stop offset="0" stop-color="#ffffff" />
   <stop offset="0.20165709" stop-color="#ffffff" />
   <stop offset="0.32675916" stop-color="#eff5fb" />
   <stop offset="1" stop-color="#04487f" />
  </linearGradient>
  <linearGradient id="linear_1" y1="0" x1="0" y2="1" gradientUnits="objectBoundingBox" x2="1" >
   <stop offset="0" stop-color="#000000" />
   <stop offset="0.47816542" stop-color="#000000" />
   <stop offset="0.49808899" stop-color="#ffffff" />
   <stop offset="0.50756544" stop-color="#ffffff" />
   <stop offset="0.5300767400000001" stop-color="#000000" />
   <stop offset="1" stop-color="#000000" />
  </linearGradient>
 </defs>
 <metadata/>
 <path fill="url(#linear_0)" id="path19411" d="M37.246,20.002C37.246,29.527 29.529,37.249 20,37.249C10.48,37.249 2.753,29.527 2.753,20.002C2.753,10.477 10.48,2.755 20,2.755C29.529,2.755 37.246,10.477 37.246,20.002" />
 <path fill="#000000" id="path19413" d="M20,0C8.961,0 0,8.959 0,19.999C0,31.037 8.961,40 20,40C31.038,40 40,31.037 40,19.999C40,8.959 31.038,0 20,0M20,2.752C29.519,2.752 37.246,10.478 37.246,19.999C37.246,29.519 29.519,37.246 20,37.246C10.48,37.246 2.753,29.519 2.753,19.999C2.753,10.478 10.48,2.752 20,2.752" />
 <path fill="#000000" id="minute" atv:refpx="20" atv:refpy="20" d="M19.83,6.88L20.187,6.878L20.332,22.505L19.666,22.507Z" />
 <path fill="#000000" id="hour" atv:refpx="20" atv:refpy="20" d="M19.68,10.933L20.293,10.937L20.46,22.334L19.539,22.332Z" />
 <path fill="url(#radialGradient14963)" id="path19421" d="M20.703,19.999C20.703,20.389 20.388,20.706 19.993,20.706C19.611,20.706 19.296,20.389 19.296,19.999C19.296,19.609 19.611,19.292 19.993,19.292C20.388,19.292 20.703,19.609 20.703,19.999" />
 <path fill="url(#radialGradient14960)" id="path19423" d="M20,0.143C13.183,0.143 7.158,3.564 3.543,8.78C7.695,4.441 13.526,1.737 20,1.737C26.471,1.737 32.314,4.441 36.456,8.78C32.841,3.564 26.824,0.143 20,0.143" />
 <path fill="url(#radialGradient14956)" id="path19425" d="M20,38.708C25.276,38.708 29.995,36.34 33.163,32.607C29.64,35.684 25.043,37.549 20,37.549C14.966,37.549 10.359,35.684 6.844,32.607C10.004,36.34 14.733,38.708 20,38.708" />
 <path fill="#000000" id="path19427" d="M19.645,3.191L19.645,6.63C19.878,6.621 20.121,6.624 20.364,6.63L20.364,3.191ZM11.736,5.365L11.462,5.52L12.911,8.023C13.002,7.971 13.082,7.92 13.174,7.87ZM28.273,5.365L26.825,7.87C26.916,7.92 27.007,7.971 27.099,8.023L28.537,5.52ZM5.518,11.46L5.366,11.727L7.877,13.174C7.926,13.084 7.979,12.994 8.029,12.904ZM34.481,11.46L31.98,12.904C32.03,12.994 32.081,13.084 32.131,13.174L34.633,11.727ZM3.188,19.642L3.188,20.356L6.632,20.356C6.622,20.118 6.632,19.879 6.632,19.642ZM33.376,19.642C33.376,19.879 33.376,20.118 33.376,20.356L36.81,20.356L36.81,19.642ZM7.877,26.824L5.366,28.27L5.518,28.536L8.029,27.092C7.979,27.004 7.926,26.914 7.877,26.824M32.131,26.824C32.081,26.914 32.03,27.004 31.98,27.092L34.481,28.536L34.633,28.27ZM12.911,31.973L11.462,34.478L11.736,34.632L13.174,32.128C13.082,32.077 13.002,32.026 12.911,31.973M27.099,31.973C27.007,32.026 26.916,32.077 26.825,32.128L28.273,34.632L28.537,34.478ZM19.645,33.368L19.645,36.807L20.364,36.807L20.364,33.368C20.121,33.377 19.878,33.374 19.645,33.368" />
 <path fill="url(#linearGradient14952)" id="path19429" d="M34.57,15.593C34.57,22.238 28.049,27.622 20,27.622C11.959,27.622 5.437,22.238 5.437,15.593C5.437,8.952 11.959,3.566 20,3.566C28.049,3.566 34.57,8.952 34.57,15.593" />
 <script type="text/ecmascript" ><![CDATA[
  webMI.setInterval(1000, function(e) {
   var today = new Date();
   var h = today.getHours();
   var m = today.getMinutes();
   var s = today.getSeconds();

   webMI.gfx.setRotation("hour", webMI.translate(h*30 + m/2, 0, 359, 0, 359));
   webMI.gfx.setRotation("minute", webMI.translate(m*6 + s/10, 0, 359, 0, 359));
	});]]></script>
</svg>
