<?xml version="1.0" encoding="UTF-8" standalone="no"?>
<!DOCTYPE svg PUBLIC "-//W3C//DTD SVG 1.1//EN"
 "http://www.w3.org/Graphics/SVG/1.1/DTD/svg11.dtd">
<!-- Generated by graphviz version 2.40.1 (20161225.0304)
 -->
<!-- Title: dependencies Pages: 1 -->
<svg width="718pt" height="284pt"
 viewBox="0.00 0.00 718.00 284.00" xmlns="http://www.w3.org/2000/svg" xmlns:xlink="http://www.w3.org/1999/xlink">
<g id="graph0" class="graph" transform="scale(1 1) rotate(0) translate(4 280)">
<title>dependencies</title>
<polygon fill="#ffffff" stroke="transparent" points="-4,4 -4,-280 714,-280 714,4 -4,4"/>
<text text-anchor="start" x="334.0091" y="-42.4" font-family="sans-serif" font-weight="bold" font-size="14.00" fill="#000000">Legend</text>
<polygon fill="#ffffb3" stroke="transparent" points="121,-10 121,-30 141,-30 141,-10 121,-10"/>
<text text-anchor="start" x="144.629" y="-15.4" font-family="sans-serif" font-size="14.00" fill="#000000"> &#160;Declarations</text>
<polygon fill="#8dd3c7" stroke="transparent" points="234,-10 234,-30 254,-30 254,-10 234,-10"/>
<text text-anchor="start" x="257.7251" y="-15.4" font-family="sans-serif" font-size="14.00" fill="#000000"> &#160;Module</text>
<polygon fill="#80b1d3" stroke="transparent" points="320,-10 320,-30 340,-30 340,-10 320,-10"/>
<text text-anchor="start" x="343.7812" y="-15.4" font-family="sans-serif" font-size="14.00" fill="#000000"> &#160;Bootstrap</text>
<polygon fill="#fdb462" stroke="transparent" points="417,-10 417,-30 437,-30 437,-10 417,-10"/>
<text text-anchor="start" x="440.6732" y="-15.4" font-family="sans-serif" font-size="14.00" fill="#000000"> &#160;Providers</text>
<polygon fill="#fb8072" stroke="transparent" points="513,-10 513,-30 533,-30 533,-10 513,-10"/>
<text text-anchor="start" x="536.7258" y="-15.4" font-family="sans-serif" font-size="14.00" fill="#000000"> &#160;Exports</text>
<g id="clust1" class="cluster">
<title>cluster_TopologyRoutineModule</title>
<polygon fill="none" stroke="#000000" stroke-dasharray="1,5" points="8,-70 8,-268 702,-268 702,-70 8,-70"/>
</g>
<g id="clust3" class="cluster">
<title>cluster_TopologyRoutineModule_imports</title>
<polygon fill="none" stroke="#000000" points="496,-78 496,-130 694,-130 694,-78 496,-78"/>
</g>
<g id="clust4" class="cluster">
<title>cluster_TopologyRoutineModule_exports</title>
<polygon fill="none" stroke="#000000" points="314,-208 314,-260 432,-260 432,-208 314,-208"/>
</g>
<g id="clust6" class="cluster">
<title>cluster_TopologyRoutineModule_providers</title>
<polygon fill="none" stroke="#000000" points="16,-78 16,-130 488,-130 488,-78 16,-78"/>
</g>
<!-- RouterModule.forChild(args) -->
<g id="node1" class="node">
<title>RouterModule.forChild(args)</title>
<polygon fill="#8dd3c7" stroke="#000000" points="685.7323,-122 682.7323,-126 661.7323,-126 658.7323,-122 504.2677,-122 504.2677,-86 685.7323,-86 685.7323,-122"/>
<text text-anchor="middle" x="595" y="-99.8" font-family="Times,serif" font-size="14.00" fill="#000000">RouterModule.forChild(args)</text>
</g>
<!-- TopologyRoutineModule -->
<g id="node2" class="node">
<title>TopologyRoutineModule</title>
<polygon fill="#8dd3c7" stroke="#000000" points="452.3257,-187 449.3257,-191 428.3257,-191 425.3257,-187 293.6743,-187 293.6743,-151 452.3257,-151 452.3257,-187"/>
<text text-anchor="middle" x="373" y="-164.8" font-family="Times,serif" font-size="14.00" fill="#000000">TopologyRoutineModule</text>
</g>
<!-- RouterModule.forChild(args)&#45;&gt;TopologyRoutineModule -->
<g id="edge1" class="edge">
<title>RouterModule.forChild(args)&#45;&gt;TopologyRoutineModule</title>
<path fill="none" stroke="#000000" d="M595,-122.1061C595,-141.3391 595,-169 595,-169 595,-169 462.2069,-169 462.2069,-169"/>
<polygon fill="#000000" stroke="#000000" points="462.2069,-165.5001 452.2069,-169 462.2069,-172.5001 462.2069,-165.5001"/>
</g>
<!-- RouterModule  -->
<g id="node3" class="node">
<title>RouterModule </title>
<polygon fill="#fb8072" stroke="#000000" points="423.6523,-252 322.3477,-252 322.3477,-216 423.6523,-216 423.6523,-252"/>
<text text-anchor="middle" x="373" y="-229.8" font-family="Times,serif" font-size="14.00" fill="#000000">RouterModule </text>
</g>
<!-- TopologyRoutineModule&#45;&gt;RouterModule  -->
<g id="edge2" class="edge">
<title>TopologyRoutineModule&#45;&gt;RouterModule </title>
<path fill="none" stroke="#000000" stroke-dasharray="5,2" d="M373,-187.1061C373,-187.1061 373,-205.991 373,-205.991"/>
<polygon fill="#000000" stroke="#000000" points="369.5001,-205.9909 373,-215.991 376.5001,-205.991 369.5001,-205.9909"/>
</g>
<!-- TopologyDetailResolver -->
<g id="node4" class="node">
<title>TopologyDetailResolver</title>
<ellipse fill="#fdb462" stroke="#000000" cx="373" cy="-104" rx="106.5217" ry="18"/>
<text text-anchor="middle" x="373" y="-99.8" font-family="Times,serif" font-size="14.00" fill="#000000">TopologyDetailResolver</text>
</g>
<!-- TopologyDetailResolver&#45;&gt;TopologyRoutineModule -->
<g id="edge3" class="edge">
<title>TopologyDetailResolver&#45;&gt;TopologyRoutineModule</title>
<path fill="none" stroke="#000000" d="M373,-122.1061C373,-122.1061 373,-140.991 373,-140.991"/>
<polygon fill="#000000" stroke="#000000" points="369.5001,-140.9909 373,-150.991 376.5001,-140.991 369.5001,-140.9909"/>
</g>
<!-- TopologyWorkerResolver -->
<g id="node5" class="node">
<title>TopologyWorkerResolver</title>
<ellipse fill="#fdb462" stroke="#000000" cx="136" cy="-104" rx="112.3071" ry="18"/>
<text text-anchor="middle" x="136" y="-99.8" font-family="Times,serif" font-size="14.00" fill="#000000">TopologyWorkerResolver</text>
</g>
<!-- TopologyWorkerResolver&#45;&gt;TopologyRoutineModule -->
<g id="edge4" class="edge">
<title>TopologyWorkerResolver&#45;&gt;TopologyRoutineModule</title>
<path fill="none" stroke="#000000" d="M136,-122.1061C136,-141.3391 136,-169 136,-169 136,-169 283.7529,-169 283.7529,-169"/>
<polygon fill="#000000" stroke="#000000" points="283.753,-172.5001 293.7529,-169 283.7529,-165.5001 283.753,-172.5001"/>
</g>
</g>
</svg>
