<?xml version="1.0" encoding="UTF-8" standalone="no"?>
<!DOCTYPE svg PUBLIC "-//W3C//DTD SVG 1.1//EN"
 "http://www.w3.org/Graphics/SVG/1.1/DTD/svg11.dtd">
<!-- Generated by graphviz version 2.40.1 (20161225.0304)
 -->
<!-- Title: dependencies Pages: 1 -->
<svg width="1141pt" height="211pt"
 viewBox="0.00 0.00 1141.00 211.00" xmlns="http://www.w3.org/2000/svg" xmlns:xlink="http://www.w3.org/1999/xlink">
<g id="graph0" class="graph" transform="scale(1 1) rotate(0) translate(4 207)">
<title>dependencies</title>
<polygon fill="#ffffff" stroke="transparent" points="-4,4 -4,-207 1137,-207 1137,4 -4,4"/>
<text text-anchor="start" x="545.5091" y="-42.4" font-family="sans-serif" font-weight="bold" font-size="14.00" fill="#000000">Legend</text>
<polygon fill="#ffffb3" stroke="transparent" points="332.5,-10 332.5,-30 352.5,-30 352.5,-10 332.5,-10"/>
<text text-anchor="start" x="356.129" y="-15.4" font-family="sans-serif" font-size="14.00" fill="#000000"> &#160;Declarations</text>
<polygon fill="#8dd3c7" stroke="transparent" points="445.5,-10 445.5,-30 465.5,-30 465.5,-10 445.5,-10"/>
<text text-anchor="start" x="469.2251" y="-15.4" font-family="sans-serif" font-size="14.00" fill="#000000"> &#160;Module</text>
<polygon fill="#80b1d3" stroke="transparent" points="531.5,-10 531.5,-30 551.5,-30 551.5,-10 531.5,-10"/>
<text text-anchor="start" x="555.2812" y="-15.4" font-family="sans-serif" font-size="14.00" fill="#000000"> &#160;Bootstrap</text>
<polygon fill="#fdb462" stroke="transparent" points="628.5,-10 628.5,-30 648.5,-30 648.5,-10 628.5,-10"/>
<text text-anchor="start" x="652.1732" y="-15.4" font-family="sans-serif" font-size="14.00" fill="#000000"> &#160;Providers</text>
<polygon fill="#fb8072" stroke="transparent" points="724.5,-10 724.5,-30 744.5,-30 744.5,-10 724.5,-10"/>
<text text-anchor="start" x="748.2258" y="-15.4" font-family="sans-serif" font-size="14.00" fill="#000000"> &#160;Exports</text>
<g id="clust1" class="cluster">
<title>cluster_CoreModule</title>
<polygon fill="none" stroke="#000000" stroke-dasharray="1,5" points="8,-70 8,-195 1125,-195 1125,-70 8,-70"/>
</g>
<g id="clust3" class="cluster">
<title>cluster_CoreModule_imports</title>
<polygon fill="none" stroke="#000000" points="853,-78 853,-130 1117,-130 1117,-78 853,-78"/>
</g>
<g id="clust6" class="cluster">
<title>cluster_CoreModule_providers</title>
<polygon fill="none" stroke="#000000" points="16,-78 16,-130 845,-130 845,-78 16,-78"/>
</g>
<!-- CommonModule -->
<g id="node1" class="node">
<title>CommonModule</title>
<polygon fill="#8dd3c7" stroke="#000000" points="1108.6681,-122 1105.6681,-126 1084.6681,-126 1081.6681,-122 997.3319,-122 997.3319,-86 1108.6681,-86 1108.6681,-122"/>
<text text-anchor="middle" x="1053" y="-99.8" font-family="Times,serif" font-size="14.00" fill="#000000">CommonModule</text>
</g>
<!-- CoreModule -->
<g id="node3" class="node">
<title>CoreModule</title>
<polygon fill="#8dd3c7" stroke="#000000" points="649.2619,-187 646.2619,-191 625.2619,-191 622.2619,-187 562.7381,-187 562.7381,-151 649.2619,-151 649.2619,-187"/>
<text text-anchor="middle" x="606" y="-164.8" font-family="Times,serif" font-size="14.00" fill="#000000">CoreModule</text>
</g>
<!-- CommonModule&#45;&gt;CoreModule -->
<g id="edge1" class="edge">
<title>CommonModule&#45;&gt;CoreModule</title>
<path fill="none" stroke="#000000" d="M1053,-122.2921C1053,-144.2057 1053,-178 1053,-178 1053,-178 659.2664,-178 659.2664,-178"/>
<polygon fill="#000000" stroke="#000000" points="659.2664,-174.5001 649.2664,-178 659.2664,-181.5001 659.2664,-174.5001"/>
</g>
<!-- HttpClientModule -->
<g id="node2" class="node">
<title>HttpClientModule</title>
<polygon fill="#8dd3c7" stroke="#000000" points="979.1611,-122 976.1611,-126 955.1611,-126 952.1611,-122 860.8389,-122 860.8389,-86 979.1611,-86 979.1611,-122"/>
<text text-anchor="middle" x="920" y="-99.8" font-family="Times,serif" font-size="14.00" fill="#000000">HttpClientModule</text>
</g>
<!-- HttpClientModule&#45;&gt;CoreModule -->
<g id="edge2" class="edge">
<title>HttpClientModule&#45;&gt;CoreModule</title>
<path fill="none" stroke="#000000" d="M920,-122.1061C920,-141.3391 920,-169 920,-169 920,-169 659.3307,-169 659.3307,-169"/>
<polygon fill="#000000" stroke="#000000" points="659.3307,-165.5001 649.3307,-169 659.3306,-172.5001 659.3307,-165.5001"/>
</g>
<!-- LoggingService -->
<g id="node4" class="node">
<title>LoggingService</title>
<ellipse fill="#fdb462" stroke="#000000" cx="764" cy="-104" rx="72.9353" ry="18"/>
<text text-anchor="middle" x="764" y="-99.8" font-family="Times,serif" font-size="14.00" fill="#000000">LoggingService</text>
</g>
<!-- LoggingService&#45;&gt;CoreModule -->
<g id="edge3" class="edge">
<title>LoggingService&#45;&gt;CoreModule</title>
<path fill="none" stroke="#000000" d="M764,-122.027C764,-138.3976 764,-160 764,-160 764,-160 659.5924,-160 659.5924,-160"/>
<polygon fill="#000000" stroke="#000000" points="659.5925,-156.5001 649.5924,-160 659.5924,-163.5001 659.5925,-156.5001"/>
</g>
<!-- ConfigService -->
<g id="node5" class="node">
<title>ConfigService</title>
<ellipse fill="#fdb462" stroke="#000000" cx="606" cy="-104" rx="66.6325" ry="18"/>
<text text-anchor="middle" x="606" y="-99.8" font-family="Times,serif" font-size="14.00" fill="#000000">ConfigService</text>
</g>
<!-- ConfigService&#45;&gt;CoreModule -->
<g id="edge4" class="edge">
<title>ConfigService&#45;&gt;CoreModule</title>
<path fill="none" stroke="#000000" d="M606,-122.1061C606,-122.1061 606,-140.991 606,-140.991"/>
<polygon fill="#000000" stroke="#000000" points="602.5001,-140.9909 606,-150.991 609.5001,-140.991 602.5001,-140.9909"/>
</g>
<!-- TopologyService -->
<g id="node6" class="node">
<title>TopologyService</title>
<ellipse fill="#fdb462" stroke="#000000" cx="444" cy="-104" rx="77.5917" ry="18"/>
<text text-anchor="middle" x="444" y="-99.8" font-family="Times,serif" font-size="14.00" fill="#000000">TopologyService</text>
</g>
<!-- TopologyService&#45;&gt;CoreModule -->
<g id="edge5" class="edge">
<title>TopologyService&#45;&gt;CoreModule</title>
<path fill="none" stroke="#000000" d="M444,-122.027C444,-138.3976 444,-160 444,-160 444,-160 552.587,-160 552.587,-160"/>
<polygon fill="#000000" stroke="#000000" points="552.587,-163.5001 562.587,-160 552.5869,-156.5001 552.587,-163.5001"/>
</g>
<!-- HttpErrorHandler -->
<g id="node7" class="node">
<title>HttpErrorHandler</title>
<ellipse fill="#fdb462" stroke="#000000" cx="269" cy="-104" rx="79.8527" ry="18"/>
<text text-anchor="middle" x="269" y="-99.8" font-family="Times,serif" font-size="14.00" fill="#000000">HttpErrorHandler</text>
</g>
<!-- HttpErrorHandler&#45;&gt;CoreModule -->
<g id="edge6" class="edge">
<title>HttpErrorHandler&#45;&gt;CoreModule</title>
<path fill="none" stroke="#000000" d="M269,-122.1061C269,-141.3391 269,-169 269,-169 269,-169 552.6331,-169 552.6331,-169"/>
<polygon fill="#000000" stroke="#000000" points="552.6331,-172.5001 562.6331,-169 552.633,-165.5001 552.6331,-172.5001"/>
</g>
<!-- MessageService -->
<g id="node8" class="node">
<title>MessageService</title>
<ellipse fill="#fdb462" stroke="#000000" cx="98" cy="-104" rx="73.5522" ry="18"/>
<text text-anchor="middle" x="98" y="-99.8" font-family="Times,serif" font-size="14.00" fill="#000000">MessageService</text>
</g>
<!-- MessageService&#45;&gt;CoreModule -->
<g id="edge7" class="edge">
<title>MessageService&#45;&gt;CoreModule</title>
<path fill="none" stroke="#000000" d="M98,-122.2921C98,-144.2057 98,-178 98,-178 98,-178 552.6882,-178 552.6882,-178"/>
<polygon fill="#000000" stroke="#000000" points="552.6882,-181.5001 562.6882,-178 552.6882,-174.5001 552.6882,-181.5001"/>
</g>
</g>
</svg>
