<?xml version="1.0" encoding="UTF-8" standalone="no"?>
<!DOCTYPE svg PUBLIC "-//W3C//DTD SVG 1.1//EN"
 "http://www.w3.org/Graphics/SVG/1.1/DTD/svg11.dtd">
<!-- Generated by graphviz version 2.40.1 (20161225.0304)
 -->
<!-- Title: dependencies Pages: 1 -->
<svg width="1279pt" height="284pt"
 viewBox="0.00 0.00 1279.00 284.00" xmlns="http://www.w3.org/2000/svg" xmlns:xlink="http://www.w3.org/1999/xlink">
<g id="graph0" class="graph" transform="scale(1 1) rotate(0) translate(4 280)">
<title>dependencies</title>
<polygon fill="#ffffff" stroke="transparent" points="-4,4 -4,-280 1275,-280 1275,4 -4,4"/>
<text text-anchor="start" x="614.5091" y="-42.4" font-family="sans-serif" font-weight="bold" font-size="14.00" fill="#000000">Legend</text>
<polygon fill="#ffffb3" stroke="transparent" points="401.5,-10 401.5,-30 421.5,-30 421.5,-10 401.5,-10"/>
<text text-anchor="start" x="425.129" y="-15.4" font-family="sans-serif" font-size="14.00" fill="#000000"> &#160;Declarations</text>
<polygon fill="#8dd3c7" stroke="transparent" points="514.5,-10 514.5,-30 534.5,-30 534.5,-10 514.5,-10"/>
<text text-anchor="start" x="538.2251" y="-15.4" font-family="sans-serif" font-size="14.00" fill="#000000"> &#160;Module</text>
<polygon fill="#80b1d3" stroke="transparent" points="600.5,-10 600.5,-30 620.5,-30 620.5,-10 600.5,-10"/>
<text text-anchor="start" x="624.2812" y="-15.4" font-family="sans-serif" font-size="14.00" fill="#000000"> &#160;Bootstrap</text>
<polygon fill="#fdb462" stroke="transparent" points="697.5,-10 697.5,-30 717.5,-30 717.5,-10 697.5,-10"/>
<text text-anchor="start" x="721.1732" y="-15.4" font-family="sans-serif" font-size="14.00" fill="#000000"> &#160;Providers</text>
<polygon fill="#fb8072" stroke="transparent" points="793.5,-10 793.5,-30 813.5,-30 813.5,-10 793.5,-10"/>
<text text-anchor="start" x="817.2258" y="-15.4" font-family="sans-serif" font-size="14.00" fill="#000000"> &#160;Exports</text>
<g id="clust1" class="cluster">
<title>cluster_AppModule</title>
<polygon fill="none" stroke="#000000" stroke-dasharray="1,5" points="8,-70 8,-268 1263,-268 1263,-70 8,-70"/>
</g>
<g id="clust2" class="cluster">
<title>cluster_AppModule_declarations</title>
<polygon fill="none" stroke="#000000" points="1133,-78 1133,-130 1255,-130 1255,-78 1133,-78"/>
</g>
<g id="clust4" class="cluster">
<title>cluster_AppModule_imports</title>
<polygon fill="none" stroke="#000000" points="16,-78 16,-130 1125,-130 1125,-78 16,-78"/>
</g>
<g id="clust6" class="cluster">
<title>cluster_AppModule_bootstrap</title>
<polygon fill="none" stroke="#000000" points="579,-208 579,-260 703,-260 703,-208 579,-208"/>
</g>
<!-- AppComponent -->
<g id="node1" class="node">
<title>AppComponent</title>
<polygon fill="#ffffb3" stroke="#000000" points="1246.9399,-122 1141.0601,-122 1141.0601,-86 1246.9399,-86 1246.9399,-122"/>
<text text-anchor="middle" x="1194" y="-99.8" font-family="Times,serif" font-size="14.00" fill="#000000">AppComponent</text>
</g>
<!-- AppModule -->
<g id="node2" class="node">
<title>AppModule</title>
<polygon fill="#8dd3c7" stroke="#000000" points="682.6571,-187 679.6571,-191 658.6571,-191 655.6571,-187 599.3429,-187 599.3429,-151 682.6571,-151 682.6571,-187"/>
<text text-anchor="middle" x="641" y="-164.8" font-family="Times,serif" font-size="14.00" fill="#000000">AppModule</text>
</g>
<!-- AppComponent&#45;&gt;AppModule -->
<g id="edge1" class="edge">
<title>AppComponent&#45;&gt;AppModule</title>
<path fill="none" stroke="#000000" d="M1194,-122.0109C1194,-144.4852 1194,-180 1194,-180 1194,-180 693.0188,-180 693.0188,-180"/>
<polygon fill="#000000" stroke="#000000" points="693.0188,-176.5001 683.0188,-180 693.0187,-183.5001 693.0188,-176.5001"/>
</g>
<!-- AppComponent  -->
<g id="node12" class="node">
<title>AppComponent </title>
<polygon fill="#80b1d3" stroke="#000000" points="695.439,-252 586.561,-252 586.561,-216 695.439,-216 695.439,-252"/>
<text text-anchor="middle" x="641" y="-229.8" font-family="Times,serif" font-size="14.00" fill="#000000">AppComponent </text>
</g>
<!-- AppModule&#45;&gt;AppComponent  -->
<g id="edge11" class="edge">
<title>AppModule&#45;&gt;AppComponent </title>
<path fill="none" stroke="#000000" stroke-dasharray="1,5" d="M641,-187.1061C641,-187.1061 641,-205.991 641,-205.991"/>
<polygon fill="#000000" stroke="#000000" points="637.5001,-205.9909 641,-215.991 644.5001,-205.991 637.5001,-205.9909"/>
</g>
<!-- BrowserModule -->
<g id="node3" class="node">
<title>BrowserModule</title>
<polygon fill="#8dd3c7" stroke="#000000" points="1117.4734,-122 1114.4734,-126 1093.4734,-126 1090.4734,-122 1010.5266,-122 1010.5266,-86 1117.4734,-86 1117.4734,-122"/>
<text text-anchor="middle" x="1064" y="-99.8" font-family="Times,serif" font-size="14.00" fill="#000000">BrowserModule</text>
</g>
<!-- BrowserModule&#45;&gt;AppModule -->
<g id="edge2" class="edge">
<title>BrowserModule&#45;&gt;AppModule</title>
<path fill="none" stroke="#000000" d="M1064,-122.1289C1064,-142.5724 1064,-173 1064,-173 1064,-173 692.7165,-173 692.7165,-173"/>
<polygon fill="#000000" stroke="#000000" points="692.7166,-169.5001 682.7165,-173 692.7165,-176.5001 692.7166,-169.5001"/>
</g>
<!-- RouterModule -->
<g id="node4" class="node">
<title>RouterModule</title>
<polygon fill="#8dd3c7" stroke="#000000" points="992.6528,-122 989.6528,-126 968.6528,-126 965.6528,-122 895.3472,-122 895.3472,-86 992.6528,-86 992.6528,-122"/>
<text text-anchor="middle" x="944" y="-99.8" font-family="Times,serif" font-size="14.00" fill="#000000">RouterModule</text>
</g>
<!-- RouterModule&#45;&gt;AppModule -->
<g id="edge3" class="edge">
<title>RouterModule&#45;&gt;AppModule</title>
<path fill="none" stroke="#000000" d="M944,-122.2667C944,-140.5552 944,-166 944,-166 944,-166 692.8127,-166 692.8127,-166"/>
<polygon fill="#000000" stroke="#000000" points="692.8128,-162.5001 682.8127,-166 692.8127,-169.5001 692.8128,-162.5001"/>
</g>
<!-- TopologyModule -->
<g id="node5" class="node">
<title>TopologyModule</title>
<polygon fill="#8dd3c7" stroke="#000000" points="876.993,-122 873.993,-126 852.993,-126 849.993,-122 763.007,-122 763.007,-86 876.993,-86 876.993,-122"/>
<text text-anchor="middle" x="820" y="-99.8" font-family="Times,serif" font-size="14.00" fill="#000000">TopologyModule</text>
</g>
<!-- TopologyModule&#45;&gt;AppModule -->
<g id="edge4" class="edge">
<title>TopologyModule&#45;&gt;AppModule</title>
<path fill="none" stroke="#000000" d="M820,-122.0091C820,-138.0494 820,-159 820,-159 820,-159 692.9675,-159 692.9675,-159"/>
<polygon fill="#000000" stroke="#000000" points="692.9676,-155.5001 682.9675,-159 692.9675,-162.5001 692.9676,-155.5001"/>
</g>
<!-- HomeModule -->
<g id="node6" class="node">
<title>HomeModule</title>
<polygon fill="#8dd3c7" stroke="#000000" points="744.7619,-122 741.7619,-126 720.7619,-126 717.7619,-122 651.2381,-122 651.2381,-86 744.7619,-86 744.7619,-122"/>
<text text-anchor="middle" x="698" y="-99.8" font-family="Times,serif" font-size="14.00" fill="#000000">HomeModule</text>
</g>
<!-- HomeModule&#45;&gt;AppModule -->
<g id="edge5" class="edge">
<title>HomeModule&#45;&gt;AppModule</title>
<path fill="none" stroke="#000000" d="M666.9737,-122.1061C666.9737,-122.1061 666.9737,-140.991 666.9737,-140.991"/>
<polygon fill="#000000" stroke="#000000" points="663.4738,-140.9909 666.9737,-150.991 670.4738,-140.991 663.4738,-140.9909"/>
</g>
<!-- LayoutModule -->
<g id="node7" class="node">
<title>LayoutModule</title>
<polygon fill="#8dd3c7" stroke="#000000" points="633.7078,-122 630.7078,-126 609.7078,-126 606.7078,-122 534.2922,-122 534.2922,-86 633.7078,-86 633.7078,-122"/>
<text text-anchor="middle" x="584" y="-99.8" font-family="Times,serif" font-size="14.00" fill="#000000">LayoutModule</text>
</g>
<!-- LayoutModule&#45;&gt;AppModule -->
<g id="edge6" class="edge">
<title>LayoutModule&#45;&gt;AppModule</title>
<path fill="none" stroke="#000000" d="M616.3878,-122.1061C616.3878,-122.1061 616.3878,-140.991 616.3878,-140.991"/>
<polygon fill="#000000" stroke="#000000" points="612.8879,-140.9909 616.3878,-150.991 619.8879,-140.991 612.8879,-140.9909"/>
</g>
<!-- AboutModule -->
<g id="node8" class="node">
<title>AboutModule</title>
<polygon fill="#8dd3c7" stroke="#000000" points="516.0481,-122 513.0481,-126 492.0481,-126 489.0481,-122 421.9519,-122 421.9519,-86 516.0481,-86 516.0481,-122"/>
<text text-anchor="middle" x="469" y="-99.8" font-family="Times,serif" font-size="14.00" fill="#000000">AboutModule</text>
</g>
<!-- AboutModule&#45;&gt;AppModule -->
<g id="edge7" class="edge">
<title>AboutModule&#45;&gt;AppModule</title>
<path fill="none" stroke="#000000" d="M469,-122.0091C469,-138.0494 469,-159 469,-159 469,-159 588.9241,-159 588.9241,-159"/>
<polygon fill="#000000" stroke="#000000" points="588.9241,-162.5001 598.9241,-159 588.924,-155.5001 588.9241,-162.5001"/>
</g>
<!-- OutputModule -->
<g id="node9" class="node">
<title>OutputModule</title>
<polygon fill="#8dd3c7" stroke="#000000" points="404.4386,-122 401.4386,-126 380.4386,-126 377.4386,-122 305.5614,-122 305.5614,-86 404.4386,-86 404.4386,-122"/>
<text text-anchor="middle" x="355" y="-99.8" font-family="Times,serif" font-size="14.00" fill="#000000">OutputModule</text>
</g>
<!-- OutputModule&#45;&gt;AppModule -->
<g id="edge8" class="edge">
<title>OutputModule&#45;&gt;AppModule</title>
<path fill="none" stroke="#000000" d="M355,-122.2667C355,-140.5552 355,-166 355,-166 355,-166 589.1069,-166 589.1069,-166"/>
<polygon fill="#000000" stroke="#000000" points="589.1069,-169.5001 599.1069,-166 589.1068,-162.5001 589.1069,-169.5001"/>
</g>
<!-- AppRoutineModule -->
<g id="node10" class="node">
<title>AppRoutineModule</title>
<polygon fill="#8dd3c7" stroke="#000000" points="287.9888,-122 284.9888,-126 263.9888,-126 260.9888,-122 160.0112,-122 160.0112,-86 287.9888,-86 287.9888,-122"/>
<text text-anchor="middle" x="224" y="-99.8" font-family="Times,serif" font-size="14.00" fill="#000000">AppRoutineModule</text>
</g>
<!-- AppRoutineModule&#45;&gt;AppModule -->
<g id="edge9" class="edge">
<title>AppRoutineModule&#45;&gt;AppModule</title>
<path fill="none" stroke="#000000" d="M224,-122.1289C224,-142.5724 224,-173 224,-173 224,-173 589.1072,-173 589.1072,-173"/>
<polygon fill="#000000" stroke="#000000" points="589.1072,-176.5001 599.1072,-173 589.1071,-169.5001 589.1072,-176.5001"/>
</g>
<!-- HttpClientModule -->
<g id="node11" class="node">
<title>HttpClientModule</title>
<polygon fill="#8dd3c7" stroke="#000000" points="142.1611,-122 139.1611,-126 118.1611,-126 115.1611,-122 23.8389,-122 23.8389,-86 142.1611,-86 142.1611,-122"/>
<text text-anchor="middle" x="83" y="-99.8" font-family="Times,serif" font-size="14.00" fill="#000000">HttpClientModule</text>
</g>
<!-- HttpClientModule&#45;&gt;AppModule -->
<g id="edge10" class="edge">
<title>HttpClientModule&#45;&gt;AppModule</title>
<path fill="none" stroke="#000000" d="M83,-122.0109C83,-144.4852 83,-180 83,-180 83,-180 589.0593,-180 589.0593,-180"/>
<polygon fill="#000000" stroke="#000000" points="589.0593,-183.5001 599.0593,-180 589.0593,-176.5001 589.0593,-183.5001"/>
</g>
</g>
</svg>
