<?xml version="1.0" encoding="UTF-8" standalone="no"?>
<!DOCTYPE svg PUBLIC "-//W3C//DTD SVG 1.1//EN"
 "http://www.w3.org/Graphics/SVG/1.1/DTD/svg11.dtd">
<!-- Generated by graphviz version 2.40.1 (20161225.0304)
 -->
<!-- Title: dependencies Pages: 1 -->
<svg width="735pt" height="211pt"
 viewBox="0.00 0.00 735.00 211.00" xmlns="http://www.w3.org/2000/svg" xmlns:xlink="http://www.w3.org/1999/xlink">
<g id="graph0" class="graph" transform="scale(1 1) rotate(0) translate(4 207)">
<title>dependencies</title>
<polygon fill="#ffffff" stroke="transparent" points="-4,4 -4,-207 731,-207 731,4 -4,4"/>
<text text-anchor="start" x="342.5091" y="-42.4" font-family="sans-serif" font-weight="bold" font-size="14.00" fill="#000000">Legend</text>
<polygon fill="#ffffb3" stroke="transparent" points="129.5,-10 129.5,-30 149.5,-30 149.5,-10 129.5,-10"/>
<text text-anchor="start" x="153.129" y="-15.4" font-family="sans-serif" font-size="14.00" fill="#000000"> &#160;Declarations</text>
<polygon fill="#8dd3c7" stroke="transparent" points="242.5,-10 242.5,-30 262.5,-30 262.5,-10 242.5,-10"/>
<text text-anchor="start" x="266.2251" y="-15.4" font-family="sans-serif" font-size="14.00" fill="#000000"> &#160;Module</text>
<polygon fill="#80b1d3" stroke="transparent" points="328.5,-10 328.5,-30 348.5,-30 348.5,-10 328.5,-10"/>
<text text-anchor="start" x="352.2812" y="-15.4" font-family="sans-serif" font-size="14.00" fill="#000000"> &#160;Bootstrap</text>
<polygon fill="#fdb462" stroke="transparent" points="425.5,-10 425.5,-30 445.5,-30 445.5,-10 425.5,-10"/>
<text text-anchor="start" x="449.1732" y="-15.4" font-family="sans-serif" font-size="14.00" fill="#000000"> &#160;Providers</text>
<polygon fill="#fb8072" stroke="transparent" points="521.5,-10 521.5,-30 541.5,-30 541.5,-10 521.5,-10"/>
<text text-anchor="start" x="545.2258" y="-15.4" font-family="sans-serif" font-size="14.00" fill="#000000"> &#160;Exports</text>
<g id="clust1" class="cluster">
<title>cluster_OutputModule</title>
<polygon fill="none" stroke="#000000" stroke-dasharray="1,5" points="8,-70 8,-195 719,-195 719,-70 8,-70"/>
</g>
<g id="clust2" class="cluster">
<title>cluster_OutputModule_declarations</title>
<polygon fill="none" stroke="#000000" points="575,-78 575,-130 711,-130 711,-78 575,-78"/>
</g>
<g id="clust4" class="cluster">
<title>cluster_OutputModule_imports</title>
<polygon fill="none" stroke="#000000" points="174,-78 174,-130 567,-130 567,-78 174,-78"/>
</g>
<g id="clust7" class="cluster">
<title>cluster_OutputModule_providers</title>
<polygon fill="none" stroke="#000000" points="16,-78 16,-130 166,-130 166,-78 16,-78"/>
</g>
<!-- OutputComponent -->
<g id="node1" class="node">
<title>OutputComponent</title>
<polygon fill="#ffffb3" stroke="#000000" points="703.2204,-122 582.7796,-122 582.7796,-86 703.2204,-86 703.2204,-122"/>
<text text-anchor="middle" x="643" y="-99.8" font-family="Times,serif" font-size="14.00" fill="#000000">OutputComponent</text>
</g>
<!-- OutputModule -->
<g id="node2" class="node">
<title>OutputModule</title>
<polygon fill="#8dd3c7" stroke="#000000" points="407.4386,-187 404.4386,-191 383.4386,-191 380.4386,-187 308.5614,-187 308.5614,-151 407.4386,-151 407.4386,-187"/>
<text text-anchor="middle" x="358" y="-164.8" font-family="Times,serif" font-size="14.00" fill="#000000">OutputModule</text>
</g>
<!-- OutputComponent&#45;&gt;OutputModule -->
<g id="edge1" class="edge">
<title>OutputComponent&#45;&gt;OutputModule</title>
<path fill="none" stroke="#000000" d="M643,-122.2843C643,-143.3211 643,-175 643,-175 643,-175 417.3178,-175 417.3178,-175"/>
<polygon fill="#000000" stroke="#000000" points="417.3179,-171.5001 407.3178,-175 417.3178,-178.5001 417.3179,-171.5001"/>
</g>
<!-- CommonModule -->
<g id="node3" class="node">
<title>CommonModule</title>
<polygon fill="#8dd3c7" stroke="#000000" points="558.6681,-122 555.6681,-126 534.6681,-126 531.6681,-122 447.3319,-122 447.3319,-86 558.6681,-86 558.6681,-122"/>
<text text-anchor="middle" x="503" y="-99.8" font-family="Times,serif" font-size="14.00" fill="#000000">CommonModule</text>
</g>
<!-- CommonModule&#45;&gt;OutputModule -->
<g id="edge2" class="edge">
<title>CommonModule&#45;&gt;OutputModule</title>
<path fill="none" stroke="#000000" d="M503,-122.0225C503,-139.3734 503,-163 503,-163 503,-163 417.4952,-163 417.4952,-163"/>
<polygon fill="#000000" stroke="#000000" points="417.4953,-159.5001 407.4952,-163 417.4952,-166.5001 417.4953,-159.5001"/>
</g>
<!-- OutputRoutineModule -->
<g id="node4" class="node">
<title>OutputRoutineModule</title>
<polygon fill="#8dd3c7" stroke="#000000" points="429.2702,-122 426.2702,-126 405.2702,-126 402.2702,-122 286.7298,-122 286.7298,-86 429.2702,-86 429.2702,-122"/>
<text text-anchor="middle" x="358" y="-99.8" font-family="Times,serif" font-size="14.00" fill="#000000">OutputRoutineModule</text>
</g>
<!-- OutputRoutineModule&#45;&gt;OutputModule -->
<g id="edge3" class="edge">
<title>OutputRoutineModule&#45;&gt;OutputModule</title>
<path fill="none" stroke="#000000" d="M358,-122.1061C358,-122.1061 358,-140.991 358,-140.991"/>
<polygon fill="#000000" stroke="#000000" points="354.5001,-140.9909 358,-150.991 361.5001,-140.991 354.5001,-140.9909"/>
</g>
<!-- CoreModule -->
<g id="node5" class="node">
<title>CoreModule</title>
<polygon fill="#8dd3c7" stroke="#000000" points="268.2619,-122 265.2619,-126 244.2619,-126 241.2619,-122 181.7381,-122 181.7381,-86 268.2619,-86 268.2619,-122"/>
<text text-anchor="middle" x="225" y="-99.8" font-family="Times,serif" font-size="14.00" fill="#000000">CoreModule</text>
</g>
<!-- CoreModule&#45;&gt;OutputModule -->
<g id="edge4" class="edge">
<title>CoreModule&#45;&gt;OutputModule</title>
<path fill="none" stroke="#000000" d="M225,-122.0225C225,-139.3734 225,-163 225,-163 225,-163 298.4757,-163 298.4757,-163"/>
<polygon fill="#000000" stroke="#000000" points="298.4757,-166.5001 308.4757,-163 298.4757,-159.5001 298.4757,-166.5001"/>
</g>
<!-- OutputService -->
<g id="node6" class="node">
<title>OutputService</title>
<ellipse fill="#fdb462" stroke="#000000" cx="91" cy="-104" rx="66.6325" ry="18"/>
<text text-anchor="middle" x="91" y="-99.8" font-family="Times,serif" font-size="14.00" fill="#000000">OutputService</text>
</g>
<!-- OutputService&#45;&gt;OutputModule -->
<g id="edge5" class="edge">
<title>OutputService&#45;&gt;OutputModule</title>
<path fill="none" stroke="#000000" d="M91,-122.2843C91,-143.3211 91,-175 91,-175 91,-175 298.7169,-175 298.7169,-175"/>
<polygon fill="#000000" stroke="#000000" points="298.717,-178.5001 308.7169,-175 298.7169,-171.5001 298.717,-178.5001"/>
</g>
</g>
</svg>
