<?xml version="1.0" encoding="UTF-8" standalone="no"?>
<!DOCTYPE svg PUBLIC "-//W3C//DTD SVG 1.1//EN"
 "http://www.w3.org/Graphics/SVG/1.1/DTD/svg11.dtd">
<!-- Generated by graphviz version 2.40.1 (20161225.0304)
 -->
<!-- Title: dependencies Pages: 1 -->
<svg width="662pt" height="211pt"
 viewBox="0.00 0.00 662.00 211.00" xmlns="http://www.w3.org/2000/svg" xmlns:xlink="http://www.w3.org/1999/xlink">
<g id="graph0" class="graph" transform="scale(1 1) rotate(0) translate(4 207)">
<title>dependencies</title>
<polygon fill="#ffffff" stroke="transparent" points="-4,4 -4,-207 658,-207 658,4 -4,4"/>
<text text-anchor="start" x="306.0091" y="-42.4" font-family="sans-serif" font-weight="bold" font-size="14.00" fill="#000000">Legend</text>
<polygon fill="#ffffb3" stroke="transparent" points="93,-10 93,-30 113,-30 113,-10 93,-10"/>
<text text-anchor="start" x="116.629" y="-15.4" font-family="sans-serif" font-size="14.00" fill="#000000"> &#160;Declarations</text>
<polygon fill="#8dd3c7" stroke="transparent" points="206,-10 206,-30 226,-30 226,-10 206,-10"/>
<text text-anchor="start" x="229.7251" y="-15.4" font-family="sans-serif" font-size="14.00" fill="#000000"> &#160;Module</text>
<polygon fill="#80b1d3" stroke="transparent" points="292,-10 292,-30 312,-30 312,-10 292,-10"/>
<text text-anchor="start" x="315.7812" y="-15.4" font-family="sans-serif" font-size="14.00" fill="#000000"> &#160;Bootstrap</text>
<polygon fill="#fdb462" stroke="transparent" points="389,-10 389,-30 409,-30 409,-10 389,-10"/>
<text text-anchor="start" x="412.6732" y="-15.4" font-family="sans-serif" font-size="14.00" fill="#000000"> &#160;Providers</text>
<polygon fill="#fb8072" stroke="transparent" points="485,-10 485,-30 505,-30 505,-10 485,-10"/>
<text text-anchor="start" x="508.7258" y="-15.4" font-family="sans-serif" font-size="14.00" fill="#000000"> &#160;Exports</text>
<g id="clust1" class="cluster">
<title>cluster_HomeModule</title>
<polygon fill="none" stroke="#000000" stroke-dasharray="1,5" points="8,-70 8,-195 646,-195 646,-70 8,-70"/>
</g>
<g id="clust2" class="cluster">
<title>cluster_HomeModule_declarations</title>
<polygon fill="none" stroke="#000000" points="308,-78 308,-130 638,-130 638,-78 308,-78"/>
</g>
<g id="clust5" class="cluster">
<title>cluster_HomeModule_imports</title>
<polygon fill="none" stroke="#000000" points="16,-78 16,-130 300,-130 300,-78 16,-78"/>
</g>
<!-- HomeDescriptionComponent -->
<g id="node1" class="node">
<title>HomeDescriptionComponent</title>
<polygon fill="#ffffb3" stroke="#000000" points="630.3571,-122 449.6429,-122 449.6429,-86 630.3571,-86 630.3571,-122"/>
<text text-anchor="middle" x="540" y="-99.8" font-family="Times,serif" font-size="14.00" fill="#000000">HomeDescriptionComponent</text>
</g>
<!-- HomeModule -->
<g id="node3" class="node">
<title>HomeModule</title>
<polygon fill="#8dd3c7" stroke="#000000" points="344.7619,-187 341.7619,-191 320.7619,-191 317.7619,-187 251.2381,-187 251.2381,-151 344.7619,-151 344.7619,-187"/>
<text text-anchor="middle" x="298" y="-164.8" font-family="Times,serif" font-size="14.00" fill="#000000">HomeModule</text>
</g>
<!-- HomeDescriptionComponent&#45;&gt;HomeModule -->
<g id="edge1" class="edge">
<title>HomeDescriptionComponent&#45;&gt;HomeModule</title>
<path fill="none" stroke="#000000" d="M540,-122.1061C540,-141.3391 540,-169 540,-169 540,-169 354.947,-169 354.947,-169"/>
<polygon fill="#000000" stroke="#000000" points="354.947,-165.5001 344.947,-169 354.9469,-172.5001 354.947,-165.5001"/>
</g>
<!-- HomeComponent -->
<g id="node2" class="node">
<title>HomeComponent</title>
<polygon fill="#ffffb3" stroke="#000000" points="431.5451,-122 316.4549,-122 316.4549,-86 431.5451,-86 431.5451,-122"/>
<text text-anchor="middle" x="374" y="-99.8" font-family="Times,serif" font-size="14.00" fill="#000000">HomeComponent</text>
</g>
<!-- HomeComponent&#45;&gt;HomeModule -->
<g id="edge2" class="edge">
<title>HomeComponent&#45;&gt;HomeModule</title>
<path fill="none" stroke="#000000" d="M330.5544,-122.1061C330.5544,-122.1061 330.5544,-140.991 330.5544,-140.991"/>
<polygon fill="#000000" stroke="#000000" points="327.0544,-140.9909 330.5544,-150.991 334.0544,-140.991 327.0544,-140.9909"/>
</g>
<!-- HomeRoutineModule -->
<g id="node4" class="node">
<title>HomeRoutineModule</title>
<polygon fill="#8dd3c7" stroke="#000000" points="292.094,-122 289.094,-126 268.094,-126 265.094,-122 153.906,-122 153.906,-86 292.094,-86 292.094,-122"/>
<text text-anchor="middle" x="223" y="-99.8" font-family="Times,serif" font-size="14.00" fill="#000000">HomeRoutineModule</text>
</g>
<!-- HomeRoutineModule&#45;&gt;HomeModule -->
<g id="edge3" class="edge">
<title>HomeRoutineModule&#45;&gt;HomeModule</title>
<path fill="none" stroke="#000000" d="M271.5831,-122.1061C271.5831,-122.1061 271.5831,-140.991 271.5831,-140.991"/>
<polygon fill="#000000" stroke="#000000" points="268.0832,-140.9909 271.5831,-150.991 275.0832,-140.991 268.0832,-140.9909"/>
</g>
<!-- CommonModule -->
<g id="node5" class="node">
<title>CommonModule</title>
<polygon fill="#8dd3c7" stroke="#000000" points="135.6681,-122 132.6681,-126 111.6681,-126 108.6681,-122 24.3319,-122 24.3319,-86 135.6681,-86 135.6681,-122"/>
<text text-anchor="middle" x="80" y="-99.8" font-family="Times,serif" font-size="14.00" fill="#000000">CommonModule</text>
</g>
<!-- CommonModule&#45;&gt;HomeModule -->
<g id="edge4" class="edge">
<title>CommonModule&#45;&gt;HomeModule</title>
<path fill="none" stroke="#000000" d="M80,-122.1061C80,-141.3391 80,-169 80,-169 80,-169 241.2335,-169 241.2335,-169"/>
<polygon fill="#000000" stroke="#000000" points="241.2336,-172.5001 251.2335,-169 241.2335,-165.5001 241.2336,-172.5001"/>
</g>
</g>
</svg>
