<?xml version="1.0" encoding="UTF-8" standalone="no"?>
<!DOCTYPE svg PUBLIC "-//W3C//DTD SVG 1.1//EN"
 "http://www.w3.org/Graphics/SVG/1.1/DTD/svg11.dtd">
<!-- Generated by graphviz version 2.40.1 (20161225.0304)
 -->
<!-- Title: dependencies Pages: 1 -->
<svg width="2004pt" height="211pt"
 viewBox="0.00 0.00 2004.00 211.00" xmlns="http://www.w3.org/2000/svg" xmlns:xlink="http://www.w3.org/1999/xlink">
<g id="graph0" class="graph" transform="scale(1 1) rotate(0) translate(4 207)">
<title>dependencies</title>
<polygon fill="#ffffff" stroke="transparent" points="-4,4 -4,-207 2000,-207 2000,4 -4,4"/>
<text text-anchor="start" x="977.0091" y="-42.4" font-family="sans-serif" font-weight="bold" font-size="14.00" fill="#000000">Legend</text>
<polygon fill="#ffffb3" stroke="transparent" points="764,-10 764,-30 784,-30 784,-10 764,-10"/>
<text text-anchor="start" x="787.629" y="-15.4" font-family="sans-serif" font-size="14.00" fill="#000000"> &#160;Declarations</text>
<polygon fill="#8dd3c7" stroke="transparent" points="877,-10 877,-30 897,-30 897,-10 877,-10"/>
<text text-anchor="start" x="900.7251" y="-15.4" font-family="sans-serif" font-size="14.00" fill="#000000"> &#160;Module</text>
<polygon fill="#80b1d3" stroke="transparent" points="963,-10 963,-30 983,-30 983,-10 963,-10"/>
<text text-anchor="start" x="986.7812" y="-15.4" font-family="sans-serif" font-size="14.00" fill="#000000"> &#160;Bootstrap</text>
<polygon fill="#fdb462" stroke="transparent" points="1060,-10 1060,-30 1080,-30 1080,-10 1060,-10"/>
<text text-anchor="start" x="1083.6732" y="-15.4" font-family="sans-serif" font-size="14.00" fill="#000000"> &#160;Providers</text>
<polygon fill="#fb8072" stroke="transparent" points="1156,-10 1156,-30 1176,-30 1176,-10 1156,-10"/>
<text text-anchor="start" x="1179.7258" y="-15.4" font-family="sans-serif" font-size="14.00" fill="#000000"> &#160;Exports</text>
<g id="clust1" class="cluster">
<title>cluster_TopologyModule</title>
<polygon fill="none" stroke="#000000" stroke-dasharray="1,5" points="8,-70 8,-195 1988,-195 1988,-70 8,-70"/>
</g>
<g id="clust2" class="cluster">
<title>cluster_TopologyModule_declarations</title>
<polygon fill="none" stroke="#000000" points="1234,-78 1234,-130 1980,-130 1980,-78 1234,-78"/>
</g>
<g id="clust7" class="cluster">
<title>cluster_TopologyModule_imports</title>
<polygon fill="none" stroke="#000000" points="809,-78 809,-130 1226,-130 1226,-78 809,-78"/>
</g>
<g id="clust10" class="cluster">
<title>cluster_TopologyModule_providers</title>
<polygon fill="none" stroke="#000000" points="16,-78 16,-130 801,-130 801,-78 16,-78"/>
</g>
<!-- TopologyHomeComponent -->
<g id="node1" class="node">
<title>TopologyHomeComponent</title>
<polygon fill="#ffffb3" stroke="#000000" points="1971.9874,-122 1802.0126,-122 1802.0126,-86 1971.9874,-86 1971.9874,-122"/>
<text text-anchor="middle" x="1887" y="-99.8" font-family="Times,serif" font-size="14.00" fill="#000000">TopologyHomeComponent</text>
</g>
<!-- TopologyModule -->
<g id="node5" class="node">
<title>TopologyModule</title>
<polygon fill="#8dd3c7" stroke="#000000" points="1097.993,-187 1094.993,-191 1073.993,-191 1070.993,-187 984.007,-187 984.007,-151 1097.993,-151 1097.993,-187"/>
<text text-anchor="middle" x="1041" y="-164.8" font-family="Times,serif" font-size="14.00" fill="#000000">TopologyModule</text>
</g>
<!-- TopologyHomeComponent&#45;&gt;TopologyModule -->
<g id="edge1" class="edge">
<title>TopologyHomeComponent&#45;&gt;TopologyModule</title>
<path fill="none" stroke="#000000" d="M1887,-122.0109C1887,-144.4852 1887,-180 1887,-180 1887,-180 1108.1526,-180 1108.1526,-180"/>
<polygon fill="#000000" stroke="#000000" points="1108.1526,-176.5001 1098.1526,-180 1108.1526,-183.5001 1108.1526,-176.5001"/>
</g>
<!-- TopologyListComponent -->
<g id="node2" class="node">
<title>TopologyListComponent</title>
<polygon fill="#ffffb3" stroke="#000000" points="1783.5546,-122 1626.4454,-122 1626.4454,-86 1783.5546,-86 1783.5546,-122"/>
<text text-anchor="middle" x="1705" y="-99.8" font-family="Times,serif" font-size="14.00" fill="#000000">TopologyListComponent</text>
</g>
<!-- TopologyListComponent&#45;&gt;TopologyModule -->
<g id="edge2" class="edge">
<title>TopologyListComponent&#45;&gt;TopologyModule</title>
<path fill="none" stroke="#000000" d="M1705,-122.1289C1705,-142.5724 1705,-173 1705,-173 1705,-173 1108.187,-173 1108.187,-173"/>
<polygon fill="#000000" stroke="#000000" points="1108.187,-169.5001 1098.187,-173 1108.1869,-176.5001 1108.187,-169.5001"/>
</g>
<!-- TopologyWorkerComponent -->
<g id="node3" class="node">
<title>TopologyWorkerComponent</title>
<polygon fill="#ffffb3" stroke="#000000" points="1608.0266,-122 1429.9734,-122 1429.9734,-86 1608.0266,-86 1608.0266,-122"/>
<text text-anchor="middle" x="1519" y="-99.8" font-family="Times,serif" font-size="14.00" fill="#000000">TopologyWorkerComponent</text>
</g>
<!-- TopologyWorkerComponent&#45;&gt;TopologyModule -->
<g id="edge3" class="edge">
<title>TopologyWorkerComponent&#45;&gt;TopologyModule</title>
<path fill="none" stroke="#000000" d="M1519,-122.2667C1519,-140.5552 1519,-166 1519,-166 1519,-166 1108.1832,-166 1108.1832,-166"/>
<polygon fill="#000000" stroke="#000000" points="1108.1832,-162.5001 1098.1832,-166 1108.1831,-169.5001 1108.1832,-162.5001"/>
</g>
<!-- TopologyDetailComponent -->
<g id="node4" class="node">
<title>TopologyDetailComponent</title>
<polygon fill="#ffffb3" stroke="#000000" points="1411.9832,-122 1242.0168,-122 1242.0168,-86 1411.9832,-86 1411.9832,-122"/>
<text text-anchor="middle" x="1327" y="-99.8" font-family="Times,serif" font-size="14.00" fill="#000000">TopologyDetailComponent</text>
</g>
<!-- TopologyDetailComponent&#45;&gt;TopologyModule -->
<g id="edge4" class="edge">
<title>TopologyDetailComponent&#45;&gt;TopologyModule</title>
<path fill="none" stroke="#000000" d="M1327,-122.0091C1327,-138.0494 1327,-159 1327,-159 1327,-159 1108.189,-159 1108.189,-159"/>
<polygon fill="#000000" stroke="#000000" points="1108.189,-155.5001 1098.189,-159 1108.189,-162.5001 1108.189,-155.5001"/>
</g>
<!-- CommonModule -->
<g id="node6" class="node">
<title>CommonModule</title>
<polygon fill="#8dd3c7" stroke="#000000" points="1217.6681,-122 1214.6681,-126 1193.6681,-126 1190.6681,-122 1106.3319,-122 1106.3319,-86 1217.6681,-86 1217.6681,-122"/>
<text text-anchor="middle" x="1162" y="-99.8" font-family="Times,serif" font-size="14.00" fill="#000000">CommonModule</text>
</g>
<!-- CommonModule&#45;&gt;TopologyModule -->
<g id="edge5" class="edge">
<title>CommonModule&#45;&gt;TopologyModule</title>
<path fill="none" stroke="#000000" d="M1106.2465,-104C1098.6123,-104 1093.3303,-104 1093.3303,-104 1093.3303,-104 1093.3303,-140.8939 1093.3303,-140.8939"/>
<polygon fill="#000000" stroke="#000000" points="1089.8304,-140.8938 1093.3303,-150.8939 1096.8304,-140.8939 1089.8304,-140.8938"/>
</g>
<!-- FormsModule -->
<g id="node7" class="node">
<title>FormsModule</title>
<polygon fill="#8dd3c7" stroke="#000000" points="1088.8288,-122 1085.8288,-126 1064.8288,-126 1061.8288,-122 993.1712,-122 993.1712,-86 1088.8288,-86 1088.8288,-122"/>
<text text-anchor="middle" x="1041" y="-99.8" font-family="Times,serif" font-size="14.00" fill="#000000">FormsModule</text>
</g>
<!-- FormsModule&#45;&gt;TopologyModule -->
<g id="edge6" class="edge">
<title>FormsModule&#45;&gt;TopologyModule</title>
<path fill="none" stroke="#000000" d="M1041,-122.1061C1041,-122.1061 1041,-140.991 1041,-140.991"/>
<polygon fill="#000000" stroke="#000000" points="1037.5001,-140.9909 1041,-150.991 1044.5001,-140.991 1037.5001,-140.9909"/>
</g>
<!-- TopologyRoutineModule -->
<g id="node8" class="node">
<title>TopologyRoutineModule</title>
<polygon fill="#8dd3c7" stroke="#000000" points="975.3257,-122 972.3257,-126 951.3257,-126 948.3257,-122 816.6743,-122 816.6743,-86 975.3257,-86 975.3257,-122"/>
<text text-anchor="middle" x="896" y="-99.8" font-family="Times,serif" font-size="14.00" fill="#000000">TopologyRoutineModule</text>
</g>
<!-- TopologyRoutineModule&#45;&gt;TopologyModule -->
<g id="edge7" class="edge">
<title>TopologyRoutineModule&#45;&gt;TopologyModule</title>
<path fill="none" stroke="#000000" d="M975.3924,-104C983.4081,-104 988.6697,-104 988.6697,-104 988.6697,-104 988.6697,-140.8939 988.6697,-140.8939"/>
<polygon fill="#000000" stroke="#000000" points="985.1698,-140.8938 988.6697,-150.8939 992.1698,-140.8939 985.1698,-140.8938"/>
</g>
<!-- CanDeactivateGuard -->
<g id="node9" class="node">
<title>CanDeactivateGuard</title>
<ellipse fill="#fdb462" stroke="#000000" cx="701" cy="-104" rx="92.0123" ry="18"/>
<text text-anchor="middle" x="701" y="-99.8" font-family="Times,serif" font-size="14.00" fill="#000000">CanDeactivateGuard</text>
</g>
<!-- CanDeactivateGuard&#45;&gt;TopologyModule -->
<g id="edge8" class="edge">
<title>CanDeactivateGuard&#45;&gt;TopologyModule</title>
<path fill="none" stroke="#000000" d="M701,-122.0091C701,-138.0494 701,-159 701,-159 701,-159 973.7081,-159 973.7081,-159"/>
<polygon fill="#000000" stroke="#000000" points="973.7081,-162.5001 983.7081,-159 973.7081,-155.5001 973.7081,-162.5001"/>
</g>
<!-- NodeTemplateService -->
<g id="node10" class="node">
<title>NodeTemplateService</title>
<ellipse fill="#fdb462" stroke="#000000" cx="494" cy="-104" rx="97.249" ry="18"/>
<text text-anchor="middle" x="494" y="-99.8" font-family="Times,serif" font-size="14.00" fill="#000000">NodeTemplateService</text>
</g>
<!-- NodeTemplateService&#45;&gt;TopologyModule -->
<g id="edge9" class="edge">
<title>NodeTemplateService&#45;&gt;TopologyModule</title>
<path fill="none" stroke="#000000" d="M494,-122.2667C494,-140.5552 494,-166 494,-166 494,-166 973.7526,-166 973.7526,-166"/>
<polygon fill="#000000" stroke="#000000" points="973.7526,-169.5001 983.7526,-166 973.7525,-162.5001 973.7526,-169.5001"/>
</g>
<!-- DiagramService -->
<g id="node11" class="node">
<title>DiagramService</title>
<ellipse fill="#fdb462" stroke="#000000" cx="305" cy="-104" rx="73.5522" ry="18"/>
<text text-anchor="middle" x="305" y="-99.8" font-family="Times,serif" font-size="14.00" fill="#000000">DiagramService</text>
</g>
<!-- DiagramService&#45;&gt;TopologyModule -->
<g id="edge10" class="edge">
<title>DiagramService&#45;&gt;TopologyModule</title>
<path fill="none" stroke="#000000" d="M305,-122.1289C305,-142.5724 305,-173 305,-173 305,-173 973.8597,-173 973.8597,-173"/>
<polygon fill="#000000" stroke="#000000" points="973.8598,-176.5001 983.8597,-173 973.8597,-169.5001 973.8598,-176.5001"/>
</g>
<!-- LinkTemplateService -->
<g id="node12" class="node">
<title>LinkTemplateService</title>
<ellipse fill="#fdb462" stroke="#000000" cx="119" cy="-104" rx="94.8993" ry="18"/>
<text text-anchor="middle" x="119" y="-99.8" font-family="Times,serif" font-size="14.00" fill="#000000">LinkTemplateService</text>
</g>
<!-- LinkTemplateService&#45;&gt;TopologyModule -->
<g id="edge11" class="edge">
<title>LinkTemplateService&#45;&gt;TopologyModule</title>
<path fill="none" stroke="#000000" d="M119,-122.0109C119,-144.4852 119,-180 119,-180 119,-180 973.6731,-180 973.6731,-180"/>
<polygon fill="#000000" stroke="#000000" points="973.6732,-183.5001 983.6731,-180 973.6731,-176.5001 973.6732,-183.5001"/>
</g>
</g>
</svg>
