<?xml version="1.0" encoding="UTF-8" standalone="no"?>
<!DOCTYPE svg PUBLIC "-//W3C//DTD SVG 1.1//EN"
 "http://www.w3.org/Graphics/SVG/1.1/DTD/svg11.dtd">
<!-- Generated by graphviz version 2.40.1 (20161225.0304)
 -->
<!-- Title: dependencies Pages: 1 -->
<svg width="980pt" height="284pt"
 viewBox="0.00 0.00 980.00 284.00" xmlns="http://www.w3.org/2000/svg" xmlns:xlink="http://www.w3.org/1999/xlink">
<g id="graph0" class="graph" transform="scale(1 1) rotate(0) translate(4 280)">
<title>dependencies</title>
<polygon fill="#ffffff" stroke="transparent" points="-4,4 -4,-280 976,-280 976,4 -4,4"/>
<text text-anchor="start" x="465.0091" y="-42.4" font-family="sans-serif" font-weight="bold" font-size="14.00" fill="#000000">Legend</text>
<polygon fill="#ffffb3" stroke="transparent" points="252,-10 252,-30 272,-30 272,-10 252,-10"/>
<text text-anchor="start" x="275.629" y="-15.4" font-family="sans-serif" font-size="14.00" fill="#000000"> &#160;Declarations</text>
<polygon fill="#8dd3c7" stroke="transparent" points="365,-10 365,-30 385,-30 385,-10 365,-10"/>
<text text-anchor="start" x="388.7251" y="-15.4" font-family="sans-serif" font-size="14.00" fill="#000000"> &#160;Module</text>
<polygon fill="#80b1d3" stroke="transparent" points="451,-10 451,-30 471,-30 471,-10 451,-10"/>
<text text-anchor="start" x="474.7812" y="-15.4" font-family="sans-serif" font-size="14.00" fill="#000000"> &#160;Bootstrap</text>
<polygon fill="#fdb462" stroke="transparent" points="548,-10 548,-30 568,-30 568,-10 548,-10"/>
<text text-anchor="start" x="571.6732" y="-15.4" font-family="sans-serif" font-size="14.00" fill="#000000"> &#160;Providers</text>
<polygon fill="#fb8072" stroke="transparent" points="644,-10 644,-30 664,-30 664,-10 644,-10"/>
<text text-anchor="start" x="667.7258" y="-15.4" font-family="sans-serif" font-size="14.00" fill="#000000"> &#160;Exports</text>
<g id="clust1" class="cluster">
<title>cluster_LayoutModule</title>
<polygon fill="none" stroke="#000000" stroke-dasharray="1,5" points="8,-70 8,-268 964,-268 964,-70 8,-70"/>
</g>
<g id="clust2" class="cluster">
<title>cluster_LayoutModule_declarations</title>
<polygon fill="none" stroke="#000000" points="268,-78 268,-130 956,-130 956,-78 268,-78"/>
</g>
<g id="clust7" class="cluster">
<title>cluster_LayoutModule_imports</title>
<polygon fill="none" stroke="#000000" points="16,-78 16,-130 260,-130 260,-78 16,-78"/>
</g>
<g id="clust8" class="cluster">
<title>cluster_LayoutModule_exports</title>
<polygon fill="none" stroke="#000000" points="94,-208 94,-260 796,-260 796,-208 94,-208"/>
</g>
<!-- LayoutHeaderComponent -->
<g id="node1" class="node">
<title>LayoutHeaderComponent</title>
<polygon fill="#ffffb3" stroke="#000000" points="947.9017,-122 786.0983,-122 786.0983,-86 947.9017,-86 947.9017,-122"/>
<text text-anchor="middle" x="867" y="-99.8" font-family="Times,serif" font-size="14.00" fill="#000000">LayoutHeaderComponent</text>
</g>
<!-- LayoutModule -->
<g id="node5" class="node">
<title>LayoutModule</title>
<polygon fill="#8dd3c7" stroke="#000000" points="486.7078,-187 483.7078,-191 462.7078,-191 459.7078,-187 387.2922,-187 387.2922,-151 486.7078,-151 486.7078,-187"/>
<text text-anchor="middle" x="437" y="-164.8" font-family="Times,serif" font-size="14.00" fill="#000000">LayoutModule</text>
</g>
<!-- LayoutHeaderComponent&#45;&gt;LayoutModule -->
<g id="edge1" class="edge">
<title>LayoutHeaderComponent&#45;&gt;LayoutModule</title>
<path fill="none" stroke="#000000" d="M868.0756,-122.1061C868.0756,-141.3391 868.0756,-169 868.0756,-169 868.0756,-169 496.871,-169 496.871,-169"/>
<polygon fill="#000000" stroke="#000000" points="496.871,-165.5001 486.871,-169 496.8709,-172.5001 496.871,-165.5001"/>
</g>
<!-- LayoutNaviComponent -->
<g id="node2" class="node">
<title>LayoutNaviComponent</title>
<polygon fill="#ffffb3" stroke="#000000" points="768.2021,-122 619.7979,-122 619.7979,-86 768.2021,-86 768.2021,-122"/>
<text text-anchor="middle" x="694" y="-99.8" font-family="Times,serif" font-size="14.00" fill="#000000">LayoutNaviComponent</text>
</g>
<!-- LayoutNaviComponent&#45;&gt;LayoutModule -->
<g id="edge2" class="edge">
<title>LayoutNaviComponent&#45;&gt;LayoutModule</title>
<path fill="none" stroke="#000000" d="M719.9171,-122.027C719.9171,-138.3976 719.9171,-160 719.9171,-160 719.9171,-160 496.6042,-160 496.6042,-160"/>
<polygon fill="#000000" stroke="#000000" points="496.6042,-156.5001 486.6042,-160 496.6041,-163.5001 496.6042,-156.5001"/>
</g>
<!-- LayoutMainComponent -->
<g id="node3" class="node">
<title>LayoutMainComponent</title>
<polygon fill="#ffffb3" stroke="#000000" points="602.0407,-122 451.9593,-122 451.9593,-86 602.0407,-86 602.0407,-122"/>
<text text-anchor="middle" x="527" y="-99.8" font-family="Times,serif" font-size="14.00" fill="#000000">LayoutMainComponent</text>
</g>
<!-- LayoutMainComponent&#45;&gt;LayoutModule -->
<g id="edge3" class="edge">
<title>LayoutMainComponent&#45;&gt;LayoutModule</title>
<path fill="none" stroke="#000000" d="M469.1669,-122.1061C469.1669,-122.1061 469.1669,-140.991 469.1669,-140.991"/>
<polygon fill="#000000" stroke="#000000" points="465.667,-140.9909 469.1669,-150.991 472.667,-140.991 465.667,-140.9909"/>
</g>
<!-- LayoutFooterComponent -->
<g id="node4" class="node">
<title>LayoutFooterComponent</title>
<polygon fill="#ffffb3" stroke="#000000" points="433.5393,-122 276.4607,-122 276.4607,-86 433.5393,-86 433.5393,-122"/>
<text text-anchor="middle" x="355" y="-99.8" font-family="Times,serif" font-size="14.00" fill="#000000">LayoutFooterComponent</text>
</g>
<!-- LayoutFooterComponent&#45;&gt;LayoutModule -->
<g id="edge4" class="edge">
<title>LayoutFooterComponent&#45;&gt;LayoutModule</title>
<path fill="none" stroke="#000000" d="M410.5828,-122.1061C410.5828,-122.1061 410.5828,-140.991 410.5828,-140.991"/>
<polygon fill="#000000" stroke="#000000" points="407.0828,-140.9909 410.5828,-150.991 414.0828,-140.991 407.0828,-140.9909"/>
</g>
<!-- LayoutHeaderComponent  -->
<g id="node8" class="node">
<title>LayoutHeaderComponent </title>
<polygon fill="#fb8072" stroke="#000000" points="788.4012,-252 623.5988,-252 623.5988,-216 788.4012,-216 788.4012,-252"/>
<text text-anchor="middle" x="706" y="-229.8" font-family="Times,serif" font-size="14.00" fill="#000000">LayoutHeaderComponent </text>
</g>
<!-- LayoutModule&#45;&gt;LayoutHeaderComponent  -->
<g id="edge7" class="edge">
<title>LayoutModule&#45;&gt;LayoutHeaderComponent </title>
<path fill="none" stroke="#000000" stroke-dasharray="5,2" d="M486.7809,-178C555.6847,-178 671.7333,-178 671.7333,-178 671.7333,-178 671.7333,-205.973 671.7333,-205.973"/>
<polygon fill="#000000" stroke="#000000" points="668.2334,-205.973 671.7333,-215.973 675.2334,-205.973 668.2334,-205.973"/>
</g>
<!-- LayoutNaviComponent  -->
<g id="node9" class="node">
<title>LayoutNaviComponent </title>
<polygon fill="#fb8072" stroke="#000000" points="605.7023,-252 454.2977,-252 454.2977,-216 605.7023,-216 605.7023,-252"/>
<text text-anchor="middle" x="530" y="-229.8" font-family="Times,serif" font-size="14.00" fill="#000000">LayoutNaviComponent </text>
</g>
<!-- LayoutModule&#45;&gt;LayoutNaviComponent  -->
<g id="edge8" class="edge">
<title>LayoutModule&#45;&gt;LayoutNaviComponent </title>
<path fill="none" stroke="#000000" stroke-dasharray="5,2" d="M470.3764,-187.1061C470.3764,-187.1061 470.3764,-205.991 470.3764,-205.991"/>
<polygon fill="#000000" stroke="#000000" points="466.8765,-205.9909 470.3764,-215.991 473.8765,-205.991 466.8765,-205.9909"/>
</g>
<!-- LayoutMainComponent  -->
<g id="node10" class="node">
<title>LayoutMainComponent </title>
<polygon fill="#fb8072" stroke="#000000" points="436.04,-252 281.96,-252 281.96,-216 436.04,-216 436.04,-252"/>
<text text-anchor="middle" x="359" y="-229.8" font-family="Times,serif" font-size="14.00" fill="#000000">LayoutMainComponent </text>
</g>
<!-- LayoutModule&#45;&gt;LayoutMainComponent  -->
<g id="edge9" class="edge">
<title>LayoutModule&#45;&gt;LayoutMainComponent </title>
<path fill="none" stroke="#000000" stroke-dasharray="5,2" d="M411.7081,-187.1061C411.7081,-187.1061 411.7081,-205.991 411.7081,-205.991"/>
<polygon fill="#000000" stroke="#000000" points="408.2082,-205.9909 411.7081,-215.991 415.2082,-205.991 408.2082,-205.9909"/>
</g>
<!-- LayoutFooterComponent  -->
<g id="node11" class="node">
<title>LayoutFooterComponent </title>
<polygon fill="#fb8072" stroke="#000000" points="263.5386,-252 102.4614,-252 102.4614,-216 263.5386,-216 263.5386,-252"/>
<text text-anchor="middle" x="183" y="-229.8" font-family="Times,serif" font-size="14.00" fill="#000000">LayoutFooterComponent </text>
</g>
<!-- LayoutModule&#45;&gt;LayoutFooterComponent  -->
<g id="edge10" class="edge">
<title>LayoutModule&#45;&gt;LayoutFooterComponent </title>
<path fill="none" stroke="#000000" stroke-dasharray="5,2" d="M387.0484,-178C333.9881,-178 257.6766,-178 257.6766,-178 257.6766,-178 257.6766,-205.973 257.6766,-205.973"/>
<polygon fill="#000000" stroke="#000000" points="254.1766,-205.973 257.6766,-215.973 261.1766,-205.973 254.1766,-205.973"/>
</g>
<!-- CommonModule -->
<g id="node6" class="node">
<title>CommonModule</title>
<polygon fill="#8dd3c7" stroke="#000000" points="251.6681,-122 248.6681,-126 227.6681,-126 224.6681,-122 140.3319,-122 140.3319,-86 251.6681,-86 251.6681,-122"/>
<text text-anchor="middle" x="196" y="-99.8" font-family="Times,serif" font-size="14.00" fill="#000000">CommonModule</text>
</g>
<!-- CommonModule&#45;&gt;LayoutModule -->
<g id="edge5" class="edge">
<title>CommonModule&#45;&gt;LayoutModule</title>
<path fill="none" stroke="#000000" d="M196,-122.027C196,-138.3976 196,-160 196,-160 196,-160 377.3569,-160 377.3569,-160"/>
<polygon fill="#000000" stroke="#000000" points="377.3569,-163.5001 387.3569,-160 377.3568,-156.5001 377.3569,-163.5001"/>
</g>
<!-- RouterModule -->
<g id="node7" class="node">
<title>RouterModule</title>
<polygon fill="#8dd3c7" stroke="#000000" points="121.6528,-122 118.6528,-126 97.6528,-126 94.6528,-122 24.3472,-122 24.3472,-86 121.6528,-86 121.6528,-122"/>
<text text-anchor="middle" x="73" y="-99.8" font-family="Times,serif" font-size="14.00" fill="#000000">RouterModule</text>
</g>
<!-- RouterModule&#45;&gt;LayoutModule -->
<g id="edge6" class="edge">
<title>RouterModule&#45;&gt;LayoutModule</title>
<path fill="none" stroke="#000000" d="M112.1534,-122.1061C112.1534,-141.3391 112.1534,-169 112.1534,-169 112.1534,-169 377.3092,-169 377.3092,-169"/>
<polygon fill="#000000" stroke="#000000" points="377.3092,-172.5001 387.3092,-169 377.3091,-165.5001 377.3092,-172.5001"/>
</g>
</g>
</svg>
