<?xml version="1.0" encoding="UTF-8" standalone="no"?>
<!DOCTYPE svg PUBLIC "-//W3C//DTD SVG 1.1//EN"
 "http://www.w3.org/Graphics/SVG/1.1/DTD/svg11.dtd">
<!-- Generated by graphviz version 2.40.1 (20161225.0304)
 -->
<!-- Title: dependencies Pages: 1 -->
<svg width="1385pt" height="211pt"
 viewBox="0.00 0.00 1385.00 211.00" xmlns="http://www.w3.org/2000/svg" xmlns:xlink="http://www.w3.org/1999/xlink">
<g id="graph0" class="graph" transform="scale(1 1) rotate(0) translate(4 207)">
<title>dependencies</title>
<polygon fill="#ffffff" stroke="transparent" points="-4,4 -4,-207 1381,-207 1381,4 -4,4"/>
<text text-anchor="start" x="667.5091" y="-42.4" font-family="sans-serif" font-weight="bold" font-size="14.00" fill="#000000">Legend</text>
<polygon fill="#ffffb3" stroke="transparent" points="454.5,-10 454.5,-30 474.5,-30 474.5,-10 454.5,-10"/>
<text text-anchor="start" x="478.129" y="-15.4" font-family="sans-serif" font-size="14.00" fill="#000000"> &#160;Declarations</text>
<polygon fill="#8dd3c7" stroke="transparent" points="567.5,-10 567.5,-30 587.5,-30 587.5,-10 567.5,-10"/>
<text text-anchor="start" x="591.2251" y="-15.4" font-family="sans-serif" font-size="14.00" fill="#000000"> &#160;Module</text>
<polygon fill="#80b1d3" stroke="transparent" points="653.5,-10 653.5,-30 673.5,-30 673.5,-10 653.5,-10"/>
<text text-anchor="start" x="677.2812" y="-15.4" font-family="sans-serif" font-size="14.00" fill="#000000"> &#160;Bootstrap</text>
<polygon fill="#fdb462" stroke="transparent" points="750.5,-10 750.5,-30 770.5,-30 770.5,-10 750.5,-10"/>
<text text-anchor="start" x="774.1732" y="-15.4" font-family="sans-serif" font-size="14.00" fill="#000000"> &#160;Providers</text>
<polygon fill="#fb8072" stroke="transparent" points="846.5,-10 846.5,-30 866.5,-30 866.5,-10 846.5,-10"/>
<text text-anchor="start" x="870.2258" y="-15.4" font-family="sans-serif" font-size="14.00" fill="#000000"> &#160;Exports</text>
<g id="clust1" class="cluster">
<title>cluster_AboutModule</title>
<polygon fill="none" stroke="#000000" stroke-dasharray="1,5" points="8,-70 8,-195 1369,-195 1369,-70 8,-70"/>
</g>
<g id="clust2" class="cluster">
<title>cluster_AboutModule_declarations</title>
<polygon fill="none" stroke="#000000" points="1163,-78 1163,-130 1361,-130 1361,-78 1163,-78"/>
</g>
<g id="clust4" class="cluster">
<title>cluster_AboutModule_imports</title>
<polygon fill="none" stroke="#000000" points="871,-78 871,-130 1155,-130 1155,-78 871,-78"/>
</g>
<g id="clust7" class="cluster">
<title>cluster_AboutModule_providers</title>
<polygon fill="none" stroke="#000000" points="16,-78 16,-130 863,-130 863,-78 16,-78"/>
</g>
<!-- AboutDescriptionComponent -->
<g id="node1" class="node">
<title>AboutDescriptionComponent</title>
<polygon fill="#ffffb3" stroke="#000000" points="1352.6428,-122 1171.3572,-122 1171.3572,-86 1352.6428,-86 1352.6428,-122"/>
<text text-anchor="middle" x="1262" y="-99.8" font-family="Times,serif" font-size="14.00" fill="#000000">AboutDescriptionComponent</text>
</g>
<!-- AboutModule -->
<g id="node2" class="node">
<title>AboutModule</title>
<polygon fill="#8dd3c7" stroke="#000000" points="802.0481,-187 799.0481,-191 778.0481,-191 775.0481,-187 707.9519,-187 707.9519,-151 802.0481,-151 802.0481,-187"/>
<text text-anchor="middle" x="755" y="-164.8" font-family="Times,serif" font-size="14.00" fill="#000000">AboutModule</text>
</g>
<!-- AboutDescriptionComponent&#45;&gt;AboutModule -->
<g id="edge1" class="edge">
<title>AboutDescriptionComponent&#45;&gt;AboutModule</title>
<path fill="none" stroke="#000000" d="M1262,-122.2921C1262,-144.2057 1262,-178 1262,-178 1262,-178 812.242,-178 812.242,-178"/>
<polygon fill="#000000" stroke="#000000" points="812.2421,-174.5001 802.242,-178 812.242,-181.5001 812.2421,-174.5001"/>
</g>
<!-- CommonModule -->
<g id="node3" class="node">
<title>CommonModule</title>
<polygon fill="#8dd3c7" stroke="#000000" points="1146.6681,-122 1143.6681,-126 1122.6681,-126 1119.6681,-122 1035.3319,-122 1035.3319,-86 1146.6681,-86 1146.6681,-122"/>
<text text-anchor="middle" x="1091" y="-99.8" font-family="Times,serif" font-size="14.00" fill="#000000">CommonModule</text>
</g>
<!-- CommonModule&#45;&gt;AboutModule -->
<g id="edge2" class="edge">
<title>CommonModule&#45;&gt;AboutModule</title>
<path fill="none" stroke="#000000" d="M1091,-122.1061C1091,-141.3391 1091,-169 1091,-169 1091,-169 812.0731,-169 812.0731,-169"/>
<polygon fill="#000000" stroke="#000000" points="812.0732,-165.5001 802.0731,-169 812.0731,-172.5001 812.0732,-165.5001"/>
</g>
<!-- AboutRoutineModule -->
<g id="node4" class="node">
<title>AboutRoutineModule</title>
<polygon fill="#8dd3c7" stroke="#000000" points="1017.3795,-122 1014.3795,-126 993.3795,-126 990.3795,-122 878.6205,-122 878.6205,-86 1017.3795,-86 1017.3795,-122"/>
<text text-anchor="middle" x="948" y="-99.8" font-family="Times,serif" font-size="14.00" fill="#000000">AboutRoutineModule</text>
</g>
<!-- AboutRoutineModule&#45;&gt;AboutModule -->
<g id="edge3" class="edge">
<title>AboutRoutineModule&#45;&gt;AboutModule</title>
<path fill="none" stroke="#000000" d="M948,-122.027C948,-138.3976 948,-160 948,-160 948,-160 812.2131,-160 812.2131,-160"/>
<polygon fill="#000000" stroke="#000000" points="812.2131,-156.5001 802.2131,-160 812.2131,-163.5001 812.2131,-156.5001"/>
</g>
<!-- DummyShapeProvider -->
<g id="node5" class="node">
<title>DummyShapeProvider</title>
<ellipse fill="#fdb462" stroke="#000000" cx="755" cy="-104" rx="99.5829" ry="18"/>
<text text-anchor="middle" x="755" y="-99.8" font-family="Times,serif" font-size="14.00" fill="#000000">DummyShapeProvider</text>
</g>
<!-- DummyShapeProvider&#45;&gt;AboutModule -->
<g id="edge4" class="edge">
<title>DummyShapeProvider&#45;&gt;AboutModule</title>
<path fill="none" stroke="#000000" d="M755,-122.1061C755,-122.1061 755,-140.991 755,-140.991"/>
<polygon fill="#000000" stroke="#000000" points="751.5001,-140.9909 755,-150.991 758.5001,-140.991 751.5001,-140.9909"/>
</g>
<!-- LinkDataService -->
<g id="node6" class="node">
<title>LinkDataService</title>
<ellipse fill="#fdb462" stroke="#000000" cx="561" cy="-104" rx="76.4208" ry="18"/>
<text text-anchor="middle" x="561" y="-99.8" font-family="Times,serif" font-size="14.00" fill="#000000">LinkDataService</text>
</g>
<!-- LinkDataService&#45;&gt;AboutModule -->
<g id="edge5" class="edge">
<title>LinkDataService&#45;&gt;AboutModule</title>
<path fill="none" stroke="#000000" d="M561,-122.027C561,-138.3976 561,-160 561,-160 561,-160 697.5423,-160 697.5423,-160"/>
<polygon fill="#000000" stroke="#000000" points="697.5423,-163.5001 707.5423,-160 697.5422,-156.5001 697.5423,-163.5001"/>
</g>
<!-- NodeDataService -->
<g id="node7" class="node">
<title>NodeDataService</title>
<ellipse fill="#fdb462" stroke="#000000" cx="387" cy="-104" rx="79.2709" ry="18"/>
<text text-anchor="middle" x="387" y="-99.8" font-family="Times,serif" font-size="14.00" fill="#000000">NodeDataService</text>
</g>
<!-- NodeDataService&#45;&gt;AboutModule -->
<g id="edge6" class="edge">
<title>NodeDataService&#45;&gt;AboutModule</title>
<path fill="none" stroke="#000000" d="M387,-122.1061C387,-141.3391 387,-169 387,-169 387,-169 697.6438,-169 697.6438,-169"/>
<polygon fill="#000000" stroke="#000000" points="697.6438,-172.5001 707.6438,-169 697.6438,-165.5001 697.6438,-172.5001"/>
</g>
<!-- DummyNodeTemplateProvider -->
<g id="node8" class="node">
<title>DummyNodeTemplateProvider</title>
<ellipse fill="#fdb462" stroke="#000000" cx="157" cy="-104" rx="133.1508" ry="18"/>
<text text-anchor="middle" x="157" y="-99.8" font-family="Times,serif" font-size="14.00" fill="#000000">DummyNodeTemplateProvider</text>
</g>
<!-- DummyNodeTemplateProvider&#45;&gt;AboutModule -->
<g id="edge7" class="edge">
<title>DummyNodeTemplateProvider&#45;&gt;AboutModule</title>
<path fill="none" stroke="#000000" d="M157,-122.2921C157,-144.2057 157,-178 157,-178 157,-178 697.8263,-178 697.8263,-178"/>
<polygon fill="#000000" stroke="#000000" points="697.8263,-181.5001 707.8263,-178 697.8263,-174.5001 697.8263,-181.5001"/>
</g>
</g>
</svg>
